<?xml version="1.0" standalone="no"?>
<!DOCTYPE svg PUBLIC "-//W3C//DTD SVG 20010904//EN"
 "http://www.w3.org/TR/2001/REC-SVG-20010904/DTD/svg10.dtd">
<svg version="1.0" xmlns="http://www.w3.org/2000/svg"
 width="512.000000pt" height="512.000000pt" viewBox="0 0 512.000000 512.000000"
 preserveAspectRatio="xMidYMid meet">

<g transform="translate(0.000000,512.000000) scale(0.100000,-0.100000)"
fill="#000000" stroke="none">
<path d="M2395 5114 c-917 -77 -1698 -588 -2106 -1379 -374 -725 -385 -1575
-29 -2303 198 -406 500 -754 868 -1000 603 -405 1352 -530 2074 -347 182 46
298 89 493 185 722 352 1239 1033 1380 1819 71 392 58 741 -40 1127 -45 177
-91 298 -184 489 -129 261 -282 474 -488 676 -134 133 -165 159 -283 246 -330
243 -718 402 -1134 464 -127 19 -441 32 -551 23z m298 -300 l37 -7 0 -81 c0
-451 150 -894 417 -1228 29 -37 53 -71 53 -75 0 -4 -144 -152 -319 -327 l-320
-320 -308 302 c-169 165 -505 498 -746 739 l-438 439 83 65 c332 262 695 417
1108 473 164 23 360 32 433 20z m510 -84 c217 -63 421 -157 612 -285 126 -83
225 -162 225 -179 0 -19 -619 -631 -628 -621 -227 269 -361 619 -379 993 l-6
135 37 -7 c21 -4 83 -20 139 -36z m1126 -755 c166 -207 305 -467 386 -725 23
-73 55 -192 55 -204 0 -11 -121 -6 -251 9 -311 36 -572 138 -827 324 l-63 45
313 313 c172 172 316 313 320 313 3 0 34 -34 67 -75z m-2664 -734 l680 -681
-326 -326 -325 -325 -71 55 c-190 148 -410 261 -653 332 -157 46 -285 65 -477
71 l-182 6 -7 66 c-9 82 2 302 21 440 56 394 213 761 463 1078 l65 83 66 -60
c36 -32 372 -365 746 -739z m1822 -81 c242 -191 552 -329 863 -384 105 -19
301 -35 395 -33 l70 2 -1 -215 c-1 -176 -5 -239 -23 -345 -41 -234 -124 -481
-228 -675 -59 -111 -199 -322 -257 -385 l-45 -50 -745 745 -746 745 322 322
c178 178 325 323 327 323 2 0 32 -23 68 -50z m-177 -1558 l744 -738 -75 -60
c-245 -201 -579 -364 -895 -439 -191 -45 -494 -74 -632 -60 l-70 7 5 52 c7 63
-12 286 -33 400 -56 302 -197 616 -386 855 l-59 75 323 323 c178 178 326 323
329 323 3 0 341 -332 749 -738z m-2547 438 c127 -27 260 -71 374 -125 86 -40
255 -146 315 -197 l28 -23 -308 -313 c-169 -172 -310 -313 -314 -312 -12 0
-126 148 -191 248 -131 198 -251 474 -301 691 l-15 64 157 -6 c100 -4 192 -13
255 -27z m1038 -705 c109 -161 194 -353 240 -540 34 -141 63 -445 42 -445 -5
0 -58 13 -119 29 -294 78 -579 221 -820 412 l-77 61 314 314 314 315 23 -28
c13 -16 50 -68 83 -118z"/>
</g>
</svg>
