<?xml version="1.0" standalone="no"?>
<!DOCTYPE svg PUBLIC "-//W3C//DTD SVG 20010904//EN"
 "http://www.w3.org/TR/2001/REC-SVG-20010904/DTD/svg10.dtd">
<svg version="1.0" xmlns="http://www.w3.org/2000/svg"
 width="512.000000pt" height="512.000000pt" viewBox="0 0 512.000000 512.000000"
 preserveAspectRatio="xMidYMid meet">

<g transform="translate(0.000000,512.000000) scale(0.100000,-0.100000)"
fill="#000000" stroke="none">
<path d="M1640 5105 c-456 -80 -801 -434 -869 -892 -7 -44 -11 -265 -11 -565
l0 -494 -61 -59 c-110 -109 -178 -223 -215 -360 -18 -65 -19 -114 -19 -640 0
-618 -1 -601 57 -740 77 -186 257 -350 449 -412 l89 -28 0 -398 c0 -379 1
-400 20 -437 13 -26 34 -47 60 -60 39 -20 56 -20 1570 -20 1514 0 1531 0 1570
20 26 13 47 34 60 60 19 38 20 58 20 502 l0 464 61 59 c108 107 172 212 213
350 21 69 21 88 24 1370 2 915 0 1324 -8 1380 -65 470 -427 834 -897 904 -112
17 -2015 13 -2113 -4z m2155 -306 c237 -75 416 -230 505 -439 52 -124 53 -131
57 -541 3 -251 1 -407 -6 -445 -34 -184 -178 -329 -360 -364 -33 -6 -280 -10
-632 -10 l-578 0 -30 43 c-47 69 -145 153 -223 192 -134 65 -148 66 -846 63
l-623 -3 4 455 c4 486 3 483 57 610 91 214 305 395 520 439 30 6 64 13 75 15
11 2 472 3 1025 2 881 -2 1011 -4 1055 -17z m-1414 -1825 c60 -28 125 -93 152
-153 30 -64 30 -178 0 -242 -27 -60 -92 -125 -152 -152 -43 -20 -67 -22 -356
-28 -289 -5 -314 -7 -366 -27 -165 -65 -267 -194 -292 -368 -10 -68 -9 -78 11
-119 24 -49 79 -85 132 -85 76 0 150 74 150 150 0 50 35 107 80 130 36 19 59
20 307 20 306 0 365 8 483 66 103 51 213 161 264 264 35 72 65 184 66 243 l0
27 555 0 c468 0 568 3 633 16 94 19 190 56 259 101 l53 34 0 -614 c0 -376 -4
-635 -10 -668 -34 -180 -179 -325 -359 -359 -74 -14 -2788 -14 -2862 0 -180
34 -325 179 -359 359 -13 72 -13 990 0 1062 33 175 179 324 351 358 24 5 307
8 629 8 576 -2 586 -2 631 -23z m-361 -2115 c-32 -61 -60 -184 -60 -259 0 -75
28 -198 60 -259 l20 -41 -340 0 -340 0 0 300 0 300 340 0 340 0 -20 -41z
m2040 -259 l0 -300 -787 2 c-782 3 -788 3 -834 24 -246 114 -230 468 26 556
46 16 116 17 823 18 l772 0 0 -300z"/>
</g>
</svg>
