<?xml version="1.0" standalone="no"?>
<!DOCTYPE svg PUBLIC "-//W3C//DTD SVG 20010904//EN"
 "http://www.w3.org/TR/2001/REC-SVG-20010904/DTD/svg10.dtd">
<svg version="1.0" xmlns="http://www.w3.org/2000/svg"
 width="512.000000pt" height="512.000000pt" viewBox="0 0 512.000000 512.000000"
 preserveAspectRatio="xMidYMid meet">

<g transform="translate(0.000000,512.000000) scale(0.100000,-0.100000)"
fill="#000000" stroke="none">
<path d="M2322 5109 c-484 -43 -953 -229 -1352 -537 -109 -84 -338 -313 -422
-422 -261 -339 -428 -707 -503 -1114 -136 -737 43 -1469 503 -2066 84 -109
313 -338 422 -422 339 -261 707 -428 1114 -503 735 -135 1472 44 2065 503 111
85 338 312 423 423 499 645 665 1450 463 2245 -19 73 -50 176 -70 230 -46 125
-168 376 -231 474 -137 216 -338 446 -523 602 -204 171 -512 349 -761 441
-344 126 -753 179 -1128 146z m508 -304 c205 -24 378 -69 577 -147 88 -35 103
-44 107 -67 3 -14 31 -188 61 -386 l55 -360 -263 -262 -262 -263 -415 78 -415
78 -157 317 -157 317 187 349 c161 302 190 351 212 354 63 10 366 5 470 -8z
m-993 -290 c-99 -185 -124 -225 -141 -225 -12 1 -127 20 -256 43 l-235 43 90
60 c168 113 361 208 550 270 55 18 103 33 106 33 4 1 -47 -100 -114 -224z
m2244 -281 c100 -91 200 -200 277 -301 50 -67 59 -83 44 -83 -21 0 -475 69
-479 73 -4 4 -73 458 -73 479 0 15 15 7 78 -40 42 -33 111 -90 153 -128z
m-2766 -182 l370 -67 157 -315 c86 -173 157 -322 157 -330 0 -8 -86 -186 -192
-395 l-192 -380 -315 -46 c-173 -26 -334 -49 -357 -53 l-41 -5 -278 285 -278
285 22 89 c35 142 108 334 183 478 80 153 143 250 245 377 109 134 118 144
134 144 8 0 182 -30 385 -67z m2920 -482 c182 -28 342 -53 356 -56 23 -4 32
-20 73 -125 55 -142 108 -339 132 -499 20 -127 25 -517 8 -600 l-9 -44 -347
-169 -348 -168 -332 177 c-183 97 -334 177 -334 178 -1 0 -27 190 -58 421
l-57 419 263 263 c246 246 265 263 293 258 16 -3 179 -28 360 -55z m-1583
-470 c204 -38 372 -71 373 -72 2 -2 26 -174 54 -383 48 -359 50 -381 33 -393
-9 -7 -162 -86 -339 -175 l-321 -162 -64 60 c-35 32 -159 153 -277 269 l-213
211 178 357 c100 200 185 358 192 358 7 0 180 -31 384 -70z m-2060 -752 l70
-77 -120 -227 -120 -227 -25 79 c-56 178 -97 449 -97 641 l0 108 111 -110 c61
-61 142 -145 181 -187z m1367 -376 l303 -297 -61 -351 c-34 -194 -61 -355 -61
-359 0 -8 -706 -355 -722 -355 -19 0 -207 130 -297 205 -188 156 -357 348
-478 544 -35 55 -63 104 -63 109 0 10 353 679 364 690 4 3 163 30 354 58 191
29 349 52 352 53 3 0 142 -133 309 -297z m1664 -148 c182 -97 333 -177 334
-178 3 -3 113 -743 113 -760 0 -19 -132 -125 -262 -212 -127 -85 -329 -187
-470 -238 -107 -38 -328 -97 -362 -95 -19 1 -243 227 -478 483 l-67 73 64 367
c35 202 65 369 67 371 3 3 721 363 726 364 1 1 152 -78 335 -175z m1057 -49
c-44 -121 -113 -265 -172 -365 -73 -121 -172 -257 -175 -240 -24 141 -70 486
-65 488 4 1 104 49 222 106 118 57 217 103 218 101 2 -2 -10 -42 -28 -90z
m-2247 -1319 l152 -159 -125 7 c-230 14 -415 47 -598 107 l-94 31 229 113 228
112 28 -26 c16 -14 97 -98 180 -185z"/>
</g>
</svg>
