<?xml version="1.0" standalone="no"?>
<!DOCTYPE svg PUBLIC "-//W3C//DTD SVG 20010904//EN"
 "http://www.w3.org/TR/2001/REC-SVG-20010904/DTD/svg10.dtd">
<svg version="1.0" xmlns="http://www.w3.org/2000/svg"
 width="512.000000pt" height="512.000000pt" viewBox="0 0 512.000000 512.000000"
 preserveAspectRatio="xMidYMid meet">

<g transform="translate(0.000000,512.000000) scale(0.100000,-0.100000)"
fill="#000000" stroke="none">
<path d="M3079 5004 c-107 -33 -217 -121 -263 -212 -74 -147 -74 -288 1 -437
17 -33 86 -111 206 -233 l181 -183 -104 -104 -104 -104 -180 177 c-100 98
-202 189 -228 204 -146 81 -316 82 -455 2 -26 -16 -130 -109 -231 -208 l-183
-180 -67 67 c-77 76 -118 94 -179 78 -31 -9 -103 -76 -394 -368 -208 -209
-367 -377 -382 -403 -43 -77 -60 -153 -55 -249 3 -48 13 -104 22 -125 l16 -39
-188 -191 c-104 -105 -201 -212 -215 -237 -62 -105 -78 -250 -43 -366 l19 -63
-89 -92 c-101 -106 -138 -170 -156 -274 -15 -90 -1 -180 42 -272 29 -62 69
-105 503 -539 461 -461 474 -473 552 -510 78 -37 82 -38 196 -38 113 0 117 1
191 37 52 26 102 63 164 121 l89 83 55 -17 c77 -25 195 -24 271 1 83 28 131
60 221 148 l76 74 45 -31 c266 -183 636 -226 950 -110 94 35 123 49 212 108
231 152 391 391 450 672 19 90 22 289 5 379 -26 141 -91 304 -162 408 l-29 43
81 85 c115 122 160 220 160 350 0 124 -45 224 -156 343 l-78 83 597 592 c565
559 599 595 628 659 66 143 60 302 -15 425 -48 79 -326 352 -391 384 -81 40
-136 51 -233 46 -75 -3 -99 -9 -163 -40 -198 -94 -303 -317 -243 -519 32 -108
61 -147 247 -336 l181 -184 -409 -409 -410 -410 -212 212 -212 212 289 292
c259 260 293 299 321 359 65 139 60 301 -15 423 -44 72 -325 351 -385 381 -24
13 -64 29 -90 37 -58 18 -192 17 -252 -2z m199 -298 c15 -8 84 -72 154 -143
104 -106 127 -135 133 -166 12 -62 -8 -105 -80 -177 l-65 -65 -166 165 c-91
91 -172 177 -180 192 -31 59 -12 133 46 182 25 20 42 26 81 26 28 0 62 -6 77
-14z m1250 -30 c15 -8 84 -72 154 -143 104 -106 127 -135 133 -166 12 -62 -8
-105 -80 -177 l-65 -65 -166 165 c-91 91 -172 177 -180 192 -31 59 -12 133 46
182 25 20 42 26 81 26 28 0 62 -6 77 -14z m-2128 -806 c27 -8 180 -155 693
-668 362 -361 665 -669 673 -684 23 -44 18 -99 -15 -149 -16 -24 -191 -206
-390 -404 l-361 -360 -637 637 -638 638 166 167 c92 93 172 178 178 190 6 12
11 45 11 73 0 51 -2 54 -72 126 l-72 75 174 175 c193 193 214 206 290 184z
m-780 -465 l105 -105 -255 -256 c-140 -141 -275 -269 -299 -285 -77 -50 -165
-32 -211 43 -22 37 -27 106 -9 141 11 22 549 567 559 567 3 0 52 -47 110 -105z
m530 -1380 l635 -635 -355 -356 c-195 -195 -373 -370 -395 -387 -34 -28 -47
-32 -100 -32 -53 0 -66 4 -100 32 -22 17 -324 316 -672 665 -548 550 -633 639
-644 676 -22 77 -9 97 193 299 l183 183 63 -20 c109 -34 228 -23 338 31 26 13
84 59 128 101 45 43 83 77 86 78 3 0 291 -286 640 -635z m1519 -307 c53 -112
73 -199 73 -322 0 -160 -35 -281 -119 -410 -179 -277 -526 -404 -845 -309 -60
17 -188 79 -188 91 0 9 1023 1032 1032 1032 4 0 25 -37 47 -82z m-2686 -646
l527 -527 -62 -62 c-77 -75 -93 -83 -160 -83 l-52 0 -459 458 c-488 487 -488
487 -473 568 6 28 25 55 73 106 37 37 69 68 72 68 3 0 243 -237 534 -528z"/>
</g>
</svg>
