<?xml version="1.0" standalone="no"?>
<!DOCTYPE svg PUBLIC "-//W3C//DTD SVG 20010904//EN"
 "http://www.w3.org/TR/2001/REC-SVG-20010904/DTD/svg10.dtd">
<svg version="1.0" xmlns="http://www.w3.org/2000/svg"
 width="512.000000pt" height="512.000000pt" viewBox="0 0 512.000000 512.000000"
 preserveAspectRatio="xMidYMid meet">

<g transform="translate(0.000000,512.000000) scale(0.100000,-0.100000)"
fill="#000000" stroke="none">
<path d="M745 3226 c-280 -65 -475 -262 -531 -537 -44 -217 27 -447 187 -608
79 -79 166 -132 274 -168 69 -23 96 -27 205 -27 109 0 136 4 205 27 109 36
196 89 274 168 79 78 132 165 168 274 23 69 27 96 27 205 0 109 -4 136 -27
205 -92 278 -332 459 -622 471 -64 2 -122 -1 -160 -10z m240 -240 c238 -63
380 -298 320 -529 -43 -165 -157 -279 -322 -322 -309 -81 -599 201 -532 517
51 239 303 396 534 334z"/>
<path d="M2425 3226 c-280 -65 -475 -262 -531 -537 -44 -217 27 -447 187 -608
79 -79 166 -132 274 -168 69 -23 96 -27 205 -27 109 0 136 4 205 27 109 36
196 89 274 168 79 78 132 165 168 274 23 69 27 96 27 205 0 109 -4 136 -27
205 -92 278 -332 459 -622 471 -64 2 -122 -1 -160 -10z m240 -240 c238 -63
380 -298 320 -529 -43 -165 -157 -279 -322 -322 -309 -81 -599 201 -532 517
51 239 303 396 534 334z"/>
<path d="M4105 3226 c-280 -65 -475 -262 -531 -537 -44 -217 27 -447 187 -608
79 -79 166 -132 274 -168 69 -23 96 -27 205 -27 109 0 136 4 205 27 109 36
196 89 274 168 79 78 132 165 168 274 23 69 27 96 27 205 0 109 -4 136 -27
205 -92 278 -332 459 -622 471 -64 2 -122 -1 -160 -10z m240 -240 c238 -63
380 -298 320 -529 -43 -165 -157 -279 -322 -322 -309 -81 -599 201 -532 517
51 239 303 396 534 334z"/>
</g>
</svg>
