<?xml version="1.0" standalone="no"?>
<!DOCTYPE svg PUBLIC "-//W3C//DTD SVG 20010904//EN"
 "http://www.w3.org/TR/2001/REC-SVG-20010904/DTD/svg10.dtd">
<svg version="1.0" xmlns="http://www.w3.org/2000/svg"
 width="512.000000pt" height="512.000000pt" viewBox="0 0 512.000000 512.000000"
 preserveAspectRatio="xMidYMid meet">

<g transform="translate(0.000000,512.000000) scale(0.100000,-0.100000)"
fill="#000000" stroke="none">
<path d="M2860 5113 c-96 -7 -265 -35 -355 -58 -381 -99 -690 -277 -970 -559
-322 -324 -514 -702 -591 -1166 -25 -148 -25 -474 -1 -625 24 -145 49 -245 97
-386 22 -64 43 -143 46 -176 12 -110 -32 -233 -116 -326 -24 -27 -222 -192
-440 -367 -218 -174 -408 -332 -423 -350 -81 -95 -121 -245 -98 -367 24 -130
43 -156 305 -419 260 -261 284 -278 414 -305 132 -28 305 26 399 124 22 23
174 209 338 412 340 423 332 414 400 460 74 51 152 75 243 76 66 0 100 -7 232
-50 277 -89 469 -117 745 -108 319 10 578 74 861 212 926 454 1380 1505 1079
2498 -146 484 -477 909 -915 1180 -177 109 -458 221 -653 261 -181 37 -416 53
-597 39z m297 -303 c435 -34 820 -210 1128 -515 542 -540 687 -1359 361 -2050
-160 -339 -433 -625 -776 -813 l-76 -41 -1197 1197 c-658 658 -1197 1202
-1197 1207 0 21 120 217 189 309 305 405 772 663 1273 705 145 12 158 12 295
1z m315 -3532 c-20 -19 -238 -50 -388 -55 -249 -9 -402 14 -664 99 -101 32
-180 52 -227 55 -40 3 -73 8 -73 11 0 3 24 37 54 76 113 150 141 231 134 386
-4 82 -10 105 -41 173 -82 177 -253 287 -447 287 -125 0 -231 -42 -356 -141
-34 -27 -64 -49 -67 -49 -2 0 -8 28 -11 63 -4 34 -27 123 -51 197 -90 278
-109 389 -109 630 0 179 7 249 41 404 l15 69 1099 -1099 c604 -604 1095 -1102
1091 -1106z m-1562 712 c97 -49 135 -185 77 -274 -15 -23 -1004 -1289 -1055
-1351 -50 -61 -122 -80 -185 -49 -44 22 -404 380 -428 426 -25 48 -24 91 2
137 14 26 207 181 694 561 371 289 691 535 712 547 50 29 129 31 183 3z"/>
<path d="M3821 3490 c-102 -28 -195 -82 -271 -159 -262 -265 -219 -710 87
-914 283 -188 659 -111 842 172 59 92 82 168 88 291 8 164 -35 296 -137 419
-141 170 -394 249 -609 191z m285 -313 c182 -92 220 -330 77 -479 -108 -111
-301 -111 -416 0 -160 154 -96 429 115 498 64 21 162 12 224 -19z"/>
</g>
</svg>
