<?xml version="1.0" standalone="no"?>
<!DOCTYPE svg PUBLIC "-//W3C//DTD SVG 20010904//EN"
 "http://www.w3.org/TR/2001/REC-SVG-20010904/DTD/svg10.dtd">
<svg version="1.0" xmlns="http://www.w3.org/2000/svg"
 width="512.000000pt" height="512.000000pt" viewBox="0 0 512.000000 512.000000"
 preserveAspectRatio="xMidYMid meet">

<g transform="translate(0.000000,512.000000) scale(0.100000,-0.100000)"
fill="#000000" stroke="none">
<path d="M3940 4944 c-277 -59 -487 -334 -467 -611 3 -40 4 -73 2 -73 -2 0
-130 88 -285 195 -155 107 -300 206 -323 219 -136 79 -331 74 -464 -12 -27
-17 -219 -203 -429 -414 -345 -348 -383 -389 -408 -446 -58 -133 -57 -259 3
-388 80 -171 281 -277 467 -246 137 23 174 49 430 304 l233 231 110 -79 110
-79 -1338 -1340 c-1264 -1267 -1339 -1343 -1365 -1403 -79 -181 -45 -374 88
-508 134 -133 327 -167 508 -88 59 26 113 78 836 798 l772 771 132 -132 133
-133 -317 -317 c-284 -286 -320 -325 -348 -385 -84 -180 -52 -378 84 -514 136
-136 334 -168 514 -84 62 29 106 70 569 533 463 463 504 507 533 569 63 134
63 263 0 396 -28 60 -64 99 -348 385 l-317 317 71 71 72 71 33 -62 c56 -106
174 -193 297 -219 69 -14 1147 -15 1223 -1 186 35 330 184 361 374 38 231
-126 461 -361 506 -30 5 -195 10 -367 10 l-313 0 -4 273 c-2 149 -8 284 -12
300 -7 26 -6 27 31 27 69 0 177 29 254 66 102 50 213 161 264 265 117 238 74
503 -113 690 -149 149 -347 207 -551 163z m252 -312 c59 -26 124 -91 151 -151
30 -64 30 -178 0 -242 -27 -60 -92 -125 -152 -152 -64 -30 -178 -30 -242 0
-129 59 -202 206 -169 342 43 180 242 278 412 203z m-1497 -208 c26 -7 648
-437 650 -450 1 -5 -46 -55 -105 -112 l-106 -102 -188 134 c-103 74 -202 140
-221 146 -79 26 -87 20 -385 -275 -151 -150 -289 -280 -307 -289 -68 -34 -153
-6 -192 64 -29 52 -27 97 8 151 36 55 685 703 726 723 30 16 83 20 120 10z
m1004 -691 c13 -11 34 -32 45 -47 20 -26 21 -44 26 -374 6 -391 6 -394 80
-432 37 -19 58 -20 445 -20 387 0 408 -1 445 -20 45 -23 80 -80 80 -130 0 -50
-35 -107 -80 -130 -38 -19 -58 -20 -595 -20 -537 0 -557 1 -595 20 -64 33 -80
76 -80 217 0 135 -12 173 -69 210 -40 27 -107 31 -149 9 -15 -8 -145 -133
-288 -278 -222 -224 -262 -268 -266 -298 -11 -79 -7 -85 377 -470 199 -201
370 -379 379 -397 24 -48 20 -93 -13 -144 -38 -58 -916 -932 -958 -953 -68
-34 -153 -6 -192 64 -25 45 -27 89 -5 133 9 18 180 196 379 397 384 385 388
391 377 470 -4 30 -56 86 -372 405 -202 204 -375 384 -384 402 -24 48 -20 93
13 144 43 65 1219 1235 1261 1254 43 19 104 13 139 -12z m-1663 -1554 c8 -17
51 -68 94 -113 l79 -82 -747 -746 c-411 -410 -761 -753 -779 -762 -44 -22 -88
-20 -133 5 -70 39 -98 124 -64 192 15 31 1511 1537 1526 1537 4 0 15 -14 24
-31z"/>
<path d="M398 4339 c-43 -22 -78 -81 -78 -129 0 -50 35 -107 80 -130 37 -19
58 -20 445 -20 387 0 408 1 445 20 45 23 80 80 80 130 0 50 -35 107 -80 130
-37 19 -58 20 -447 20 -386 -1 -410 -2 -445 -21z"/>
<path d="M78 3739 c-43 -22 -78 -81 -78 -129 0 -50 35 -107 80 -130 37 -19 58
-20 455 -20 397 0 418 1 455 20 45 23 80 80 80 130 0 50 -35 107 -80 130 -37
19 -58 20 -457 20 -396 -1 -420 -2 -455 -21z"/>
<path d="M398 3139 c-43 -22 -78 -81 -78 -129 0 -50 35 -107 80 -130 37 -19
58 -20 445 -20 387 0 408 1 445 20 45 23 80 80 80 130 0 50 -35 107 -80 130
-37 19 -58 20 -447 20 -386 -1 -410 -2 -445 -21z"/>
</g>
</svg>
