<?xml version="1.0" standalone="no"?>
<!DOCTYPE svg PUBLIC "-//W3C//DTD SVG 20010904//EN"
 "http://www.w3.org/TR/2001/REC-SVG-20010904/DTD/svg10.dtd">
<svg version="1.0" xmlns="http://www.w3.org/2000/svg"
 width="512.000000pt" height="512.000000pt" viewBox="0 0 512.000000 512.000000"
 preserveAspectRatio="xMidYMid meet">

<g transform="translate(0.000000,512.000000) scale(0.100000,-0.100000)"
fill="#000000" stroke="none">
<path d="M2435 4946 c-119 -39 -133 -51 -646 -565 -546 -546 -543 -542 -570
-692 -16 -92 -1 -188 43 -279 28 -55 75 -107 302 -338 l270 -273 -424 -424
-425 -425 -40 12 c-66 20 -317 16 -395 -6 -100 -29 -219 -87 -319 -157 -50
-35 -113 -76 -140 -91 -84 -46 -112 -128 -70 -209 22 -44 80 -78 132 -79 37 0
121 43 252 132 165 111 295 145 452 119 89 -16 165 -51 290 -137 183 -125 329
-175 516 -175 208 0 335 45 555 195 120 81 201 113 309 123 140 12 240 -21
408 -135 197 -134 338 -183 528 -183 208 0 334 45 555 194 161 110 292 144
449 118 89 -15 165 -51 289 -136 128 -87 165 -105 217 -105 54 0 102 30 128
80 33 61 17 136 -37 179 -170 132 -376 241 -515 272 -151 34 -342 18 -485 -39
l-51 -20 -332 332 -333 333 49 7 c271 36 488 270 510 546 22 292 -174 560
-462 629 -70 17 -210 15 -285 -4 -231 -60 -403 -253 -445 -499 l-7 -39 -203
203 -204 204 312 316 c268 270 317 324 345 380 114 232 23 498 -208 609 -69
33 -84 36 -175 38 -63 2 -115 -2 -140 -11z m195 -301 c38 -20 68 -60 76 -100
14 -78 14 -78 -376 -470 -202 -203 -373 -381 -380 -393 -15 -30 -15 -103 0
-134 7 -12 415 -426 907 -919 l894 -896 -58 -26 c-78 -35 -133 -46 -223 -47
-138 0 -231 36 -403 154 -181 126 -341 173 -542 163 -60 -4 -137 -14 -170 -22
-91 -25 -213 -86 -317 -158 -114 -79 -156 -101 -235 -121 -152 -40 -312 -9
-456 87 l-77 52 459 460 c426 427 460 463 466 501 12 77 -4 97 -349 444 -345
346 -346 347 -331 428 6 32 68 99 473 506 257 257 481 477 497 487 36 23 105
25 145 4z m815 -1212 c99 -52 160 -154 159 -268 0 -92 -30 -160 -95 -219 -58
-52 -121 -76 -199 -76 -78 0 -141 24 -199 76 -168 151 -107 434 109 505 46 15
182 4 225 -18z"/>
<path d="M617 1370 c-125 -22 -261 -82 -394 -177 -45 -32 -105 -70 -132 -85
-84 -46 -112 -128 -70 -209 22 -44 80 -78 132 -79 37 0 121 43 252 132 165
111 295 145 452 119 89 -16 165 -51 290 -137 183 -125 329 -175 516 -175 208
0 335 45 555 195 120 81 201 113 309 123 140 12 240 -21 408 -135 197 -134
338 -183 528 -183 208 0 334 45 555 194 161 110 292 144 449 118 89 -15 165
-51 289 -136 128 -87 165 -105 217 -105 75 0 147 70 147 143 0 66 -29 102
-135 171 -27 18 -88 58 -134 89 -159 107 -326 153 -521 144 -183 -9 -317 -58
-492 -180 -157 -109 -235 -137 -379 -137 -123 0 -211 34 -372 143 -205 138
-356 185 -562 174 -60 -4 -137 -14 -170 -22 -91 -25 -213 -86 -317 -158 -157
-109 -235 -137 -379 -137 -123 0 -211 34 -372 143 -138 93 -242 139 -365 163
-79 15 -226 17 -305 4z"/>
<path d="M617 770 c-125 -22 -261 -82 -394 -177 -45 -32 -105 -70 -132 -85
-116 -64 -121 -213 -8 -267 24 -12 56 -21 70 -21 38 0 122 44 252 132 165 111
295 145 452 119 89 -16 165 -51 290 -137 183 -125 329 -175 516 -175 208 0
335 45 555 195 120 81 201 113 309 123 140 12 240 -21 408 -135 197 -134 338
-183 528 -183 208 0 334 45 555 194 161 110 292 144 449 118 89 -15 165 -51
289 -136 128 -87 165 -105 217 -105 75 0 147 70 147 143 0 66 -29 102 -135
171 -27 18 -88 58 -134 89 -159 107 -326 153 -521 144 -183 -9 -317 -58 -492
-180 -157 -109 -235 -137 -379 -137 -123 0 -211 34 -372 143 -205 138 -356
185 -562 174 -60 -4 -137 -14 -170 -22 -91 -25 -213 -86 -317 -158 -157 -109
-235 -137 -379 -137 -123 0 -211 34 -372 143 -138 93 -242 139 -365 163 -79
15 -226 17 -305 4z"/>
</g>
</svg>
