<?xml version="1.0" standalone="no"?>
<!DOCTYPE svg PUBLIC "-//W3C//DTD SVG 20010904//EN"
 "http://www.w3.org/TR/2001/REC-SVG-20010904/DTD/svg10.dtd">
<svg version="1.0" xmlns="http://www.w3.org/2000/svg"
 width="512.000000pt" height="512.000000pt" viewBox="0 0 512.000000 512.000000"
 preserveAspectRatio="xMidYMid meet">

<g transform="translate(0.000000,512.000000) scale(0.100000,-0.100000)"
fill="#000000" stroke="none">
<path d="M3335 5113 c-448 -35 -874 -206 -1244 -500 -114 -92 -282 -258 -370
-366 -165 -204 -322 -488 -400 -722 -22 -66 -148 -563 -281 -1105 l-240 -984
-359 -361 c-326 -326 -363 -366 -391 -427 -84 -180 -52 -378 84 -514 136 -136
334 -168 514 -84 61 28 101 65 427 391 l360 359 985 240 c542 133 1039 259
1105 281 66 22 184 71 262 109 442 213 820 574 1057 1009 132 240 219 500 257
766 19 128 16 426 -5 550 -60 359 -203 642 -451 890 -224 225 -495 372 -803
434 -163 34 -355 47 -507 34z m353 -311 l42 -7 -285 -285 -285 -285 -215 215
c-248 248 -241 214 -54 278 219 76 397 104 609 96 80 -3 164 -8 188 -12z m435
-138 c223 -113 436 -328 544 -549 l27 -56 -342 -342 -342 -342 -317 318 -318
317 340 340 c187 187 343 340 348 340 4 0 31 -12 60 -26z m-1490 -966 l-318
-318 -247 247 -247 247 15 26 c109 171 319 389 519 537 l99 74 248 -248 248
-248 -317 -317z m850 -850 l-318 -318 -317 317 -318 318 317 317 318 318 317
-317 318 -318 -317 -317z m1333 682 c8 -145 -5 -279 -42 -449 -26 -115 -72
-258 -103 -318 l-16 -33 -215 215 -215 215 285 285 285 285 7 -37 c4 -21 10
-94 14 -163z m-2928 -153 l212 -212 -284 -284 -284 -284 -9 49 c-15 89 -8 420
10 514 30 150 119 430 137 430 3 0 101 -96 218 -213z m720 -1404 l-341 -342
-51 26 c-220 110 -423 308 -545 533 l-41 75 343 342 342 343 317 -317 318
-318 -342 -342z m1895 473 c-4 -6 -37 -51 -73 -101 -135 -183 -315 -359 -495
-484 l-59 -42 -248 248 -248 248 317 317 318 318 247 -247 c136 -136 244 -252
241 -257z m-3116 -353 c127 -263 344 -499 603 -653 30 -18 102 -55 159 -81 58
-27 98 -50 90 -53 -11 -4 -500 -124 -616 -151 -19 -4 -23 0 -28 32 -20 126
-56 202 -131 277 -75 75 -151 111 -277 131 -32 5 -36 9 -32 28 33 139 147 606
151 617 5 11 9 9 17 -10 5 -14 34 -75 64 -137z m2203 -423 c0 -18 -280 -107
-430 -137 -94 -18 -425 -25 -514 -10 l-49 9 284 284 284 284 212 -212 c117
-117 213 -215 213 -218z m-2387 -384 c43 -17 85 -68 93 -111 14 -75 3 -89
-380 -473 -198 -200 -378 -372 -398 -383 -48 -24 -89 -24 -138 1 -45 23 -80
80 -80 130 0 17 9 47 19 68 27 52 727 747 771 766 44 19 72 20 113 2z"/>
</g>
</svg>
