<?xml version="1.0" standalone="no"?>
<!DOCTYPE svg PUBLIC "-//W3C//DTD SVG 20010904//EN"
 "http://www.w3.org/TR/2001/REC-SVG-20010904/DTD/svg10.dtd">
<svg version="1.0" xmlns="http://www.w3.org/2000/svg"
 width="512.000000pt" height="512.000000pt" viewBox="0 0 512.000000 512.000000"
 preserveAspectRatio="xMidYMid meet">

<g transform="translate(0.000000,512.000000) scale(0.100000,-0.100000)"
fill="#000000" stroke="none">
<path d="M2430 4944 c-221 -47 -408 -236 -455 -459 -8 -38 -15 -97 -15 -131 0
-69 29 -193 59 -252 l20 -40 -83 -15 c-179 -33 -277 -90 -458 -266 l-138 -134
-169 166 c-186 184 -237 218 -365 239 -186 31 -387 -75 -467 -246 -61 -131
-61 -261 1 -394 28 -61 64 -100 383 -419 318 -318 358 -355 418 -383 36 -17
86 -34 110 -39 l44 -8 -45 -12 c-148 -40 -249 -118 -307 -236 l-27 -55 -248 0
c-197 0 -256 -3 -284 -15 -41 -17 -69 -47 -84 -90 -11 -34 -320 -1821 -320
-1854 0 -41 39 -100 80 -121 39 -20 53 -20 2480 -20 2427 0 2441 0 2480 20 41
21 80 80 80 121 0 33 -309 1820 -320 1854 -15 43 -43 73 -84 90 -28 12 -87 15
-283 15 l-248 0 -34 65 c-55 107 -182 204 -290 221 -55 9 -60 20 -11 27 22 3
70 19 107 37 62 28 99 62 420 383 319 319 355 358 383 419 62 133 62 263 1
394 -80 171 -281 277 -467 246 -128 -21 -179 -55 -365 -239 l-169 -166 -138
134 c-181 176 -279 233 -458 266 l-83 15 20 40 c30 59 59 183 59 252 -1 333
-276 608 -605 605 -33 0 -89 -7 -125 -15z m252 -312 c59 -26 124 -91 151 -151
30 -64 30 -178 0 -242 -27 -60 -92 -125 -152 -152 -64 -30 -178 -30 -242 0
-129 59 -202 206 -169 342 43 180 242 278 412 203z m-1859 -888 c18 -9 131
-114 252 -234 300 -297 269 -295 545 -26 122 119 214 201 246 218 102 55 132
58 694 58 562 0 592 -3 694 -58 32 -17 124 -99 246 -218 276 -269 245 -271
545 26 121 120 234 225 252 234 43 22 88 20 133 -5 70 -39 98 -124 64 -192
-22 -44 -621 -644 -666 -668 -47 -24 -89 -24 -136 0 -20 11 -127 110 -237 221
-110 111 -212 208 -227 216 -62 33 -155 8 -195 -53 -17 -25 -18 -66 -23 -507
l-5 -480 -215 -93 c-118 -51 -222 -92 -230 -92 -8 0 -112 41 -230 92 l-215 93
-5 480 c-5 441 -6 482 -23 507 -40 61 -133 86 -195 53 -15 -8 -117 -105 -227
-216 -110 -111 -217 -210 -237 -221 -47 -24 -89 -24 -136 0 -45 24 -644 624
-666 668 -22 44 -20 88 5 133 40 70 124 98 192 64z m984 -1331 c-2 -2 -58 20
-123 48 -146 63 -220 89 -251 89 -38 0 -26 17 17 23 80 10 165 61 262 156 l93
89 3 -200 c1 -111 1 -203 -1 -205z m1758 195 c36 -16 83 -32 105 -35 43 -6 55
-23 17 -23 -31 0 -105 -26 -250 -89 -65 -28 -121 -51 -123 -51 -2 0 -4 93 -4
206 l0 207 95 -92 c69 -67 113 -101 160 -123z m-1784 -515 c214 -92 386 -170
382 -174 -5 -4 -88 -42 -186 -84 l-179 -76 -226 97 c-308 131 -318 136 -342
184 -25 50 -25 90 0 140 23 45 77 79 128 80 22 0 171 -59 423 -167z m2049 147
c108 -55 103 -208 -8 -264 -144 -72 -2135 -916 -2162 -916 -76 0 -150 74 -150
150 0 45 35 107 73 127 17 9 507 220 1087 470 662 284 1067 452 1088 453 18 0
51 -9 72 -20z m-2869 -332 c52 -113 142 -179 367 -274 l92 -38 -58 -53 c-110
-98 -166 -246 -145 -387 41 -289 323 -462 595 -367 29 11 206 85 393 165 187
80 347 146 355 146 8 0 168 -66 355 -146 187 -80 364 -154 393 -165 272 -95
554 78 595 367 21 141 -25 268 -134 375 l-67 66 91 38 c224 94 314 161 366
273 l25 52 175 -2 176 -3 127 -735 c70 -404 127 -741 127 -747 1 -10 -451 -13
-2229 -13 -1227 0 -2230 3 -2230 6 0 11 251 1469 255 1482 3 9 48 12 178 12
l174 0 24 -52z m2446 -512 c138 -59 161 -74 183 -116 11 -21 20 -53 20 -70 0
-76 -74 -150 -150 -150 -29 0 -510 198 -510 210 0 6 349 158 367 159 6 1 47
-14 90 -33z"/>
</g>
</svg>
